<svg width="17" height="461" viewBox="0 0 17 461" fill="none" xmlns="http://www.w3.org/2000/svg">
<path d="M6 0H11V461H6V0Z" fill="#28AEAD"/>
<path d="M17 42.5C17 47.1944 13.1944 51 8.5 51C3.80558 51 0 47.1944 0 42.5C0 37.8056 3.80558 34 8.5 34C13.1944 34 17 37.8056 17 42.5Z" fill="#28AEAD"/>
<path d="M17 148.5C17 153.194 13.1944 157 8.5 157C3.80558 157 0 153.194 0 148.5C0 143.806 3.80558 140 8.5 140C13.1944 140 17 143.806 17 148.5Z" fill="#28AEAD"/>
<path d="M17 253.5C17 258.194 13.1944 262 8.5 262C3.80558 262 0 258.194 0 253.5C0 248.806 3.80558 245 8.5 245C13.1944 245 17 248.806 17 253.5Z" fill="#28AEAD"/>
<path d="M17 393.5C17 398.194 13.1944 402 8.5 402C3.80558 402 0 398.194 0 393.5C0 388.806 3.80558 385 8.5 385C13.1944 385 17 388.806 17 393.5Z" fill="#28AEAD"/>
</svg>
