<svg width="1366" height="800" viewBox="0 0 1366 800" fill="none" xmlns="http://www.w3.org/2000/svg">
<g style="mix-blend-mode:darken" opacity="0.2">
<path d="M155.953 519.043L237.146 424.037L399.229 376.587L399.43 376.483L480.622 281.478L642.705 234.027L642.906 233.923L724.099 138.918L886.182 91.4672L886.383 91.3632L964.359 0.312175H962.752L885.277 90.9469L723.194 138.398L722.993 138.502L641.801 233.403L479.718 280.853L479.517 280.957L398.325 375.963L236.241 423.413L236.04 423.517L154.848 518.522L0 563.788V564.724L155.753 519.147L155.953 519.043ZM95.0593 55.9834L257.142 8.53278L257.343 8.42872L264.277 0.312175H262.669L256.238 7.80437L94.2554 55.2549L94.0544 55.359L12.8621 150.364L0 154.11V155.047L13.867 150.989L95.0593 55.9834ZM34.1651 162.851L115.357 67.846L277.44 20.3954L277.641 20.2914L294.724 0.312175H293.116L276.536 19.667L114.453 67.1176L114.252 67.2217L33.1602 162.227L0 171.904V172.841L33.9641 162.851H34.1651ZM216.647 269.719L216.848 269.615L298.04 174.61L460.123 127.263L460.324 127.159L541.516 32.154L650.443 0.312175H647.127L540.612 31.5297L540.411 31.6337L459.219 126.535L297.136 173.985L296.935 174.09L215.742 269.095L53.6593 316.545L53.4583 316.649L0 379.084V380.957L54.4631 317.17L216.647 269.719ZM196.349 257.856L196.55 257.752L277.742 162.747L439.825 115.297L440.026 115.193L521.218 20.1873L589.548 0.312175H586.232L520.213 19.667L520.012 19.7711L438.82 114.776L276.737 162.227L276.536 162.331L195.344 257.336L33.3612 304.579L33.1602 304.683L0 343.496V345.369L34.1651 305.307L196.349 257.856ZM236.844 281.686L237.045 281.582L318.238 186.576L480.321 139.126L480.522 139.022L561.714 44.1207L711.337 0.312175H708.021L560.91 43.3923L560.709 43.4964L479.517 138.502L317.434 185.952L317.233 186.056L236.04 281.061L73.9573 328.408L73.7564 328.512L0 414.672V416.545L74.7612 329.032L236.844 281.686ZM54.4631 174.714L135.655 79.7086L297.739 32.2581L297.94 32.154L325.272 0.312175H323.563L296.834 31.5297L134.751 78.9802L134.55 79.0843L53.3578 174.09L0 189.698V190.635L54.2622 174.714H54.4631ZM176.051 245.994L176.252 245.89L257.444 150.885L419.527 103.434L419.728 103.33L500.92 8.32466L528.755 0.312175H525.539L500.116 7.80437L499.915 7.90843L418.723 102.914L256.64 150.364L256.439 150.468L175.247 245.473L13.0631 292.716L12.8621 292.82L0 307.804V309.677L13.867 293.34L176.051 245.994ZM163.49 0.312175H160.174L53.6593 31.5297H53.3578L0 94.0687V95.9417L54.4631 32.154L163.49 0.312175ZM224.384 0.312175H221.068L73.9573 43.3923L73.7564 43.4964L0 129.657V131.53L74.7612 44.0167L224.384 0.312175ZM102.596 0.312175H99.2797L33.3612 19.667H33.1602L0 58.4808V60.3538L34.1651 20.2914L102.596 0.312175ZM155.953 234.027L237.146 139.022L399.229 91.5713L399.43 91.4672L477.407 0.312175H475.799L398.325 90.9469L236.241 138.398L236.04 138.502L154.848 233.403L0 278.772V279.709L155.753 234.131L155.953 234.027ZM95.0593 198.439L176.252 103.434L338.335 55.9834L338.536 55.8793L386.065 0.312175H384.458L337.43 55.359L175.347 102.706L175.146 102.81L93.9539 197.815L0 225.286V226.223L94.8583 198.439H95.0593ZM135.655 222.164L216.848 127.159L378.931 79.7086L379.132 79.6046L446.96 0.312175H445.352L378.026 79.0843L215.943 126.535L215.742 126.639L134.55 221.644L0 260.978V261.915L135.454 222.268L135.655 222.164ZM115.357 210.302L196.55 115.297L358.633 67.846L358.834 67.7419L416.512 0.312175H414.905L357.728 67.2217L195.645 114.672L195.444 114.776L114.252 209.781L0 243.08V244.017L115.156 210.302H115.357ZM74.7612 186.576L155.953 91.5713L318.037 44.1207L318.238 44.0167L355.618 0.312175H354.01L317.132 43.4964L155.049 90.8429L154.848 90.9469L73.6559 185.952L0 207.492V208.429L74.5602 186.576H74.7612ZM34.1651 447.867L115.357 352.862L277.44 305.411L277.641 305.307L358.834 210.302L520.917 162.851L521.118 162.747L602.31 67.7419L764.393 20.2914L764.594 20.1873L781.777 0.312175H780.169L763.589 19.667L601.506 67.1176L601.305 67.2217L520.113 162.227L358.03 209.677L357.829 209.781L276.637 304.787L114.553 352.237L114.353 352.341L33.1602 447.138L0 456.816V457.752L33.9641 447.763L34.1651 447.867ZM74.7612 756.608L155.953 661.603L318.037 614.152L318.238 614.048L399.43 519.043L561.513 471.592L561.714 471.488L642.906 376.483L804.989 329.136L805.19 329.032L886.383 234.027L1048.47 186.576L1048.67 186.472L1129.86 91.4672L1291.94 44.0167L1292.14 43.9126L1329.62 0.312175H1328.02L1291.14 43.4964L1129.06 90.8429L1128.85 90.9469L1047.66 185.952L885.579 233.403H885.277L804.085 328.408L642.002 375.858L641.801 375.963L560.709 470.968L398.626 518.418L398.425 518.522L317.233 613.528L155.15 660.978L154.949 661.082L73.7564 756.087L0 777.523V778.46L74.5602 756.608H74.7612ZM135.655 507.18L216.848 412.175L378.931 364.724L379.132 364.62L460.324 269.615L622.407 222.164L622.608 222.06L703.8 127.055L865.884 79.6046L866.085 79.5005L933.912 0.312175H932.305L864.979 79.0843L702.896 126.535L702.695 126.639L621.503 221.644L459.42 269.095L459.219 269.199L378.026 364.204L215.943 411.655L215.742 411.759L134.55 506.764L0 545.89V546.826L135.454 507.18H135.655ZM236.844 566.597L237.045 566.493L318.238 471.488L480.321 424.037L480.522 423.933L561.714 328.928L723.797 281.478L723.998 281.374L805.19 186.368L967.273 138.918L967.474 138.814L1048.67 43.8085L1198.29 0.312175H1194.97L1047.76 43.3923L1047.56 43.4964L966.369 138.502L804.286 185.952L804.085 186.056L722.893 281.061L560.81 328.512L560.609 328.616L479.416 423.621L317.333 471.072L317.132 471.176L235.94 566.181L73.9573 613.319L73.7564 613.424L0 699.688V701.561L74.7612 614.048L236.844 566.597ZM95.0593 768.47L176.252 673.465L338.335 626.015L338.536 625.911L419.728 530.905L581.811 483.559L582.012 483.455L663.204 388.45L825.287 340.999L825.488 340.895L906.681 245.89L1068.76 198.439L1068.96 198.335L1150.16 103.33L1312.24 55.8793L1312.44 55.7752L1360.07 0.312175H1358.46L1311.44 55.359L1149.35 102.81L1149.15 102.914L1067.96 197.919L905.877 245.369L905.676 245.473L824.484 340.479L662.4 387.929L662.199 388.033L581.007 483.039L418.924 530.489L418.723 530.593L337.531 625.598L175.448 673.049L175.247 673.153L94.0544 768.158L0 795.317V796.254L94.8583 768.47H95.0593ZM216.647 554.735L216.848 554.631L298.04 459.625L460.123 412.175L460.324 412.071L541.516 317.066L703.599 269.615L703.8 269.511L784.993 174.506L947.076 127.263L947.277 127.159L1028.47 32.154L1137.4 0.312175H1134.08L1027.46 31.5297L1027.26 31.6337L946.071 126.639L783.988 174.09L783.787 174.194L702.595 269.199L540.612 316.545L540.411 316.649L459.219 411.55L297.136 459.001L296.935 459.105L215.742 554.11L53.6593 601.457L53.4583 601.561L0 664.1V665.973L54.4631 602.185L216.647 554.735ZM95.0593 625.911L257.142 578.46L257.343 578.356L338.536 483.351L500.619 435.9L500.82 435.796L582.012 340.791L744.095 293.34L744.296 293.236L825.488 198.231L987.572 150.78L987.773 150.676L1068.96 55.6712L1231.05 8.2206L1231.25 8.11655L1238.18 0H1236.57L1230.14 7.4922L1068.16 55.2549L1067.96 55.359L986.768 150.364L824.685 197.815L824.484 197.919L743.291 292.924L581.208 340.375L581.007 340.479L499.815 435.276L337.732 482.726L337.531 482.83L256.339 577.836L94.2554 625.286L94.0544 625.39L12.8621 720.395L0 724.037V724.974L13.867 720.916L95.0593 625.911ZM34.1651 732.778L115.357 637.773L277.44 590.323L277.641 590.219L358.834 495.213L520.917 447.763L521.118 447.659L602.31 352.654L764.393 305.203L764.594 305.099L845.786 210.094L1007.87 162.643L1008.07 162.539L1089.26 67.5338L1251.35 20.0832L1251.55 19.9792L1268.63 0H1267.02L1250.44 19.3548L1088.36 66.8054L1088.16 66.9095L1006.97 161.915L844.882 209.365L844.681 209.469L763.489 304.474L601.406 351.925L601.205 352.029L520.012 447.034L358.03 494.589L357.829 494.693L276.637 589.698L114.453 637.149L114.252 637.253L33.1602 732.154L0 741.831V742.768L33.9641 732.778H34.1651ZM54.4631 744.641L135.655 649.636L297.739 602.185L297.94 602.081L379.132 507.076L541.215 459.625L541.416 459.521L622.608 364.516L784.691 317.066L784.892 316.961L866.085 221.956L1028.17 174.506L1028.37 174.402L1109.56 79.3965L1271.64 31.9459L1271.84 31.8418L1299.18 0.312175H1297.57L1270.84 31.5297L1108.76 78.9802L1108.56 79.0843L1027.36 174.09L865.281 221.54L865.08 221.644L783.887 316.649L621.804 364.1L621.603 364.204L540.411 459.209L378.328 506.66L378.127 506.764L296.935 601.769L134.852 649.22L134.651 649.324L53.4583 744.329L0 759.729V760.666L54.2622 744.745L54.4631 744.641ZM74.7612 471.592L155.953 376.587L318.037 329.136L318.238 329.032L399.43 234.027L561.513 186.576L561.714 186.472L642.906 91.4672L804.989 44.0167L805.19 43.9126L842.671 0.312175H841.064L804.185 43.4964L642.002 90.8429L641.801 90.9469L560.709 185.952L398.526 233.403L398.325 233.507L317.132 328.512L155.049 375.963L154.848 376.067L73.6559 471.072L0 492.508V493.444L74.5602 471.592H74.7612ZM95.0593 483.455L176.252 388.45L338.335 340.999L338.536 340.895L419.728 245.89L581.811 198.543L582.012 198.439L663.204 103.434L825.287 55.9834L825.488 55.8793L873.119 0.312175H871.511L824.484 55.359L662.3 102.706L662.099 102.81L580.907 197.815L418.824 245.265L418.623 245.369L337.43 340.375L175.347 387.825L175.146 387.929L93.9539 482.934L0 510.302V511.238L94.8583 483.455H95.0593ZM115.357 495.317L196.55 400.312L358.633 352.862L358.834 352.758L440.026 257.752L602.109 210.302L602.31 210.198L683.502 115.193L845.586 67.7419L845.786 67.6379L903.465 0.312175H901.857L844.681 67.2217L682.598 114.672L682.397 114.776L601.205 209.781L439.122 257.128L438.921 257.232L357.728 352.237L195.645 399.688L195.444 399.792L114.252 494.797L0 528.096V529.032L115.156 495.317H115.357ZM41.802 0.312175H38.4859L13.0631 7.80437L12.8621 7.90843L0 22.7888V24.6618L13.867 8.42872L41.802 0.312175ZM176.051 531.009L176.252 530.905L257.444 435.9L419.527 388.45L419.728 388.345L500.92 293.34L663.003 245.89L663.204 245.786L744.397 150.78L906.48 103.33L906.681 103.226L987.873 8.2206L1015.71 0.104058H1012.39L986.969 7.59625L986.768 7.80437L905.575 102.81L743.492 150.26L743.291 150.364L662.099 245.369L500.016 292.716L499.815 292.82L418.623 387.825L256.539 435.276L256.339 435.38L175.146 530.385L13.0631 577.732L12.8621 577.836L0 592.82V594.693L13.867 578.356L176.051 531.009ZM196.349 542.872L196.55 542.768L277.742 447.763L439.825 400.312L440.026 400.208L521.218 305.203L683.301 257.856L683.502 257.752L764.695 162.747L926.778 115.297L926.979 115.193L1008.17 20.1873L1076.6 0.312175H1073.29L1007.27 19.667L1007.07 19.7711L925.873 114.776L763.79 162.227L763.589 162.331L682.397 257.336L520.314 304.787L520.113 304.891L438.921 399.896L276.838 447.347L276.637 447.451L195.444 542.456L33.3612 589.594L33.1602 589.698L0 628.408V630.281L34.1651 590.323L196.349 542.872ZM54.4631 459.729L135.655 364.724L297.739 317.274L297.94 317.17L379.132 222.164L541.215 174.714L541.416 174.61L622.608 79.6046L784.691 32.154L784.892 32.0499L812.224 0.312175H810.617L783.887 31.5297L621.804 78.9802L621.603 79.0843L540.411 174.09L378.328 221.54L378.127 221.644L296.935 316.649L134.852 364.1L134.651 364.204L53.4583 459.209L0 474.714V475.65L54.2622 459.729H54.4631ZM95.0593 340.999L257.142 293.548L257.343 293.444L338.536 198.439L500.619 150.989L500.82 150.885L582.012 55.8793L744.196 8.53278L744.397 8.42872L751.33 0.312175H749.722L743.291 7.80437L581.208 55.2549L581.007 55.359L499.815 150.364L337.732 197.815L337.531 197.919L256.339 292.924L94.2554 340.271L94.0544 340.375L12.8621 435.276L0 439.022V439.958L13.867 435.9L95.0593 340.999ZM1230.24 720.291L1162.42 799.688H1164.02L1231.35 720.916L1365.9 681.582V680.645L1230.44 720.291H1230.24ZM1129.06 660.874L1128.85 660.978L1047.66 755.983L898.139 799.792H901.455L1048.67 756.712L1048.87 756.608L1130.06 661.603L1292.14 614.152L1292.34 614.048L1366 527.784V525.911L1291.24 613.424L1129.06 660.874ZM1149.35 672.737L1149.15 672.841L1067.96 767.846L958.933 799.688H962.249L1068.86 768.47L1069.07 768.366L1150.26 673.361L1312.34 625.911L1312.54 625.806L1365.9 563.267V561.394L1311.44 625.182L1149.35 672.737ZM1209.95 423.413L1128.75 518.418L966.671 565.869L966.47 565.973L885.277 660.978L723.194 708.429L722.993 708.533L645.016 799.792H646.624L724.099 709.157L886.182 661.707L886.383 661.603L967.575 566.597L1129.66 519.147L1129.86 519.043L1211.05 424.037L1365.9 378.772V377.836L1210.15 423.413H1209.95ZM1250.54 447.138L1169.35 542.144L1007.27 589.594L1007.07 589.698L925.873 684.703L763.79 732.154L763.589 732.258L705.911 799.792H707.518L764.695 732.882L926.778 685.432L926.979 685.328L1008.17 590.323L1170.25 542.872L1170.46 542.768L1251.65 447.763L1365.9 414.36V413.424L1250.74 447.138H1250.54ZM1270.84 459.105L1189.65 554.11L1027.56 601.561L1027.36 601.665L946.171 696.67L784.088 744.121L783.887 744.225L736.358 799.896H737.966L784.993 744.849L947.076 697.399L947.277 697.294L1028.47 602.289L1190.55 554.839L1190.75 554.735L1271.95 459.729L1365.9 432.258V431.322L1271.04 459.105H1270.84ZM1230.24 435.276L1149.05 530.281L986.969 577.732L986.768 577.836L905.575 672.841L743.492 720.291L743.291 720.395L675.464 799.792H677.071L744.397 721.02L906.48 673.569L906.681 673.465L987.873 578.46L1149.96 531.009L1150.16 530.905L1231.35 435.9L1365.9 396.566V395.63L1230.44 435.276H1230.24ZM1169.55 684.599L1169.35 684.703L1088.26 779.709L1019.83 799.688H1023.14L1089.16 780.333L1089.36 780.229L1170.56 685.224L1332.64 637.773L1332.84 637.669L1366 598.959V597.086L1331.83 637.149L1169.55 684.599ZM1311.44 767.846L1284.2 799.688H1285.81L1312.54 768.47L1365.9 752.862V751.925L1311.64 767.846H1311.44ZM1291.14 470.968L1209.95 565.973L1047.86 613.424L1047.66 613.528L966.47 708.533L804.386 755.983L804.185 756.087L766.805 799.896H768.413L805.291 756.816L967.374 709.365L967.575 709.261L1048.77 614.256L1210.85 566.805L1211.05 566.701L1292.24 471.696L1365.9 450.156V449.22L1291.34 471.072L1291.14 470.968ZM1331.73 779.709L1314.65 799.688H1316.26L1332.84 780.333L1366 770.656V769.719L1332.04 779.709H1331.73ZM1352.03 791.571L1345.1 799.688H1346.71L1353.14 792.196L1366 788.45V787.513L1352.33 791.571H1352.03ZM1189.85 696.462L1189.65 696.566L1108.46 791.571L1080.62 799.688H1083.94L1109.36 792.3L1109.56 792.196L1190.75 697.19L1352.84 649.74L1353.04 649.636L1365.9 634.651V632.778L1352.03 649.011L1189.85 696.462ZM1291.14 755.879L1253.76 799.688H1255.37L1292.24 756.608L1365.9 735.068V734.131L1291.34 755.983L1291.14 755.879ZM1209.95 708.429L1131.97 799.688H1133.58L1211.05 709.053L1365.9 663.788V662.851L1210.15 708.429H1209.95ZM1270.84 744.017L1223.31 799.688H1224.92L1271.95 744.641L1365.9 717.17V716.233L1271.04 744.017H1270.84ZM1250.54 732.154L1192.86 799.688H1194.47L1251.65 732.778L1365.9 699.376V698.439L1250.74 732.154H1250.54ZM1291.14 185.952L1209.95 280.957L1047.86 328.408L1047.66 328.512L966.47 423.517L804.386 470.968L804.185 471.072L722.993 566.077L560.91 613.528L560.709 613.632L479.517 708.637L317.434 756.087L317.233 756.192L279.852 800H281.46L318.338 756.92L480.421 709.469L480.622 709.365L561.814 614.36L723.898 566.909L724.099 566.805L805.291 471.8L967.374 424.35L967.575 424.246L1048.77 329.24L1210.85 281.79L1211.05 281.686L1292.24 186.576L1365.9 165.036V164.1L1291.34 185.952H1291.14ZM1331.73 67.2217L1169.65 114.672L1169.45 114.776L1088.26 209.781L926.175 257.232L925.974 257.336L844.782 352.341L682.699 399.792L682.498 399.896L601.305 494.901L439.122 542.144L438.921 542.248L357.728 637.149L195.645 684.599L195.444 684.703L114.252 779.709L45.8214 799.688H49.1374L115.156 780.333L115.357 780.229L196.55 685.224L358.633 637.773L358.834 637.669L440.026 542.664L602.109 495.213L602.31 495.109L683.502 400.104L845.586 352.654L845.786 352.549L926.979 257.544L1089.06 210.094L1089.26 209.99L1170.46 114.984L1332.54 67.5338L1332.74 67.4298L1365.9 28.7201V26.847L1331.73 67.2217ZM1311.44 482.83L1230.24 577.836L1068.16 625.286L1067.96 625.39L986.768 720.291L824.685 767.742L824.484 767.846L797.252 799.688H798.86L825.589 768.47L987.672 721.02L987.873 720.916L1069.07 625.911L1231.15 578.46L1231.35 578.356L1312.54 483.351L1365.9 467.742V466.805L1311.64 482.726L1311.44 482.83ZM1270.84 174.09L1189.65 269.095L1027.56 316.545L1027.36 316.649L946.171 411.655L784.088 459.105L783.887 459.209L702.695 554.214L540.612 601.457L540.411 601.561L459.219 696.566L297.136 744.017L296.935 744.121L249.405 799.792H251.013L298.04 744.745L460.123 697.294L460.324 697.19L541.516 602.185L703.599 554.735L703.8 554.631L784.993 459.625L947.076 412.175L947.277 412.071L1028.47 317.066L1190.55 269.615L1190.75 269.511L1271.95 174.506L1365.9 147.034V146.098L1271.04 173.881L1270.84 174.09ZM1189.85 126.535L1189.65 126.639L1108.46 221.644L946.372 269.095L946.171 269.199L864.979 364.204L702.896 411.655L702.695 411.759L621.503 506.764L459.42 554.214L459.219 554.318L378.026 649.324L215.943 696.462L215.742 696.566L134.55 791.571L106.716 799.688H110.032L135.454 792.3L135.655 792.196L216.848 697.19L378.931 649.74L379.132 649.636L460.324 554.631L622.407 507.18L622.608 507.076L703.8 412.071L865.884 364.62L866.085 364.516L947.277 269.511L1109.36 222.06L1109.56 221.956L1190.75 126.951L1352.84 79.5005L1353.04 79.3965L1365.9 64.4121V62.7471L1352.03 78.9802L1189.85 126.535ZM1250.54 162.227L1169.35 257.232L1007.27 304.683L1007.07 304.787L925.873 399.792L763.79 447.242L763.589 447.347L682.397 542.352L520.314 589.802L520.113 589.906L438.921 684.912L276.838 732.362L276.637 732.466L218.958 800H220.566L277.742 733.091L439.825 685.64L440.026 685.536L521.218 590.531L683.301 542.872L683.502 542.768L764.695 447.763L926.778 400.312L926.979 400.208L1008.17 305.203L1170.25 257.752L1170.46 257.648L1251.65 162.643L1365.9 129.24V128.304L1250.74 162.019L1250.54 162.227ZM1331.73 209.677L1250.54 304.683L1088.46 352.133L1088.26 352.237L1007.07 447.242L844.983 494.589L844.782 494.693L763.589 589.698L601.506 637.149L601.305 637.253L520.113 732.258L358.03 779.709H357.728L340.646 799.688H342.254L358.834 780.333L520.917 732.882L521.118 732.778L602.31 637.773L764.393 590.323L764.594 590.219L845.786 495.213L1007.87 447.763L1008.07 447.659L1089.26 352.654L1251.35 305.203L1251.55 305.099L1332.74 210.094L1365.9 200.416V199.48L1331.94 209.469L1331.73 209.677ZM1352.03 221.54L1270.84 316.545L1108.76 363.996L1108.56 364.1L1027.36 459.105L865.281 506.556L865.08 506.66L783.887 601.665L621.804 649.116L621.603 649.22L540.411 744.225L378.328 791.675L378.127 791.779L371.193 799.896H372.801L379.232 792.404L541.315 744.953L541.516 744.849L622.709 649.844L784.792 602.393L784.993 602.289L866.185 507.284L1028.27 459.834L1028.47 459.729L1109.66 364.724L1271.74 317.274L1271.95 317.17L1353.14 222.164L1366 218.418V217.482L1352.33 221.54H1352.03ZM1311.44 197.815L1230.24 292.82L1068.16 340.271L1067.96 340.375L986.768 435.276L824.685 482.726L824.484 482.83L743.291 577.836L581.208 625.286L581.007 625.39L499.815 720.395L337.732 767.846L337.531 767.95L310.299 799.792H311.907L338.636 768.574L500.719 721.124L500.92 721.02L582.112 626.015L744.196 578.564L744.397 578.46L825.589 483.455L987.672 436.004L987.873 435.9L1069.07 340.895L1231.15 293.444L1231.35 293.34L1312.54 198.335L1365.9 182.726V181.79L1311.64 197.711L1311.44 197.815ZM1169.55 399.584L1169.35 399.688L1088.16 494.693L926.074 542.144L925.873 542.248L844.782 637.149L682.699 684.599L682.498 684.703L601.205 779.709L532.774 799.688H536.09L602.109 780.333L602.31 780.229L683.502 685.224L845.586 637.773L845.786 637.669L926.979 542.664L1089.06 495.213L1089.26 495.109L1170.46 400.104L1332.54 352.654L1332.74 352.549L1365.9 313.84V311.967L1331.73 352.029L1169.55 399.584ZM1189.85 411.446L1189.65 411.55L1108.46 506.556L946.372 554.006L946.171 554.11L864.979 649.116L702.896 696.462L702.695 696.566L621.503 791.571L593.668 799.688H596.984L622.407 792.3L622.608 792.196L703.8 697.19L865.884 649.74L866.085 649.636L947.277 554.631L1109.36 507.18L1109.56 507.076L1190.75 412.071L1352.84 364.62L1353.04 364.516L1365.9 349.532V347.659L1352.03 363.996L1189.85 411.446ZM1352.03 506.556L1270.84 601.561L1108.76 649.011L1108.56 649.116L1027.36 744.121L865.281 791.571L865.08 791.675L858.146 799.792H859.754L866.185 792.3L1028.27 744.849L1028.47 744.745L1109.66 649.74L1271.74 602.289L1271.95 602.185L1353.14 507.18L1366 503.434V502.497L1352.33 506.556H1352.03ZM1331.73 494.693L1250.54 589.698L1088.46 637.149L1088.26 637.253L1007.07 732.258L844.983 779.709L844.782 779.813L827.699 799.792H829.307L845.887 780.437L1007.97 732.986L1008.17 732.882L1089.36 637.877L1251.45 590.427L1251.65 590.323L1332.84 495.317L1366 485.64V484.703L1332.04 494.693H1331.73ZM1230.24 150.364L1149.05 245.369L986.969 292.716L986.768 292.82L905.575 387.825L743.492 435.276L743.291 435.38L662.099 530.385L500.016 577.836L499.815 577.94L418.623 672.945L256.539 720.395L256.339 720.499L188.511 799.896H190.119L257.444 721.124L419.527 673.673L419.728 673.569L500.92 578.564L663.003 531.009L663.204 530.905L744.397 435.9L906.48 388.45L906.681 388.345L987.873 293.34L1149.96 245.89L1150.16 245.786L1231.35 150.78L1365.9 111.446V110.614L1230.44 150.26L1230.24 150.364ZM1209.95 138.398L1128.75 233.403L966.671 280.853L966.47 280.957L885.277 375.963L723.194 423.413L722.993 423.517L641.801 518.522L479.718 565.973L479.517 566.077L398.325 661.082L236.241 708.533L236.04 708.637L158.064 799.896H159.671L237.045 709.261L399.128 661.811L399.329 661.707L480.522 566.701L642.605 519.251L642.806 519.147L723.998 424.142L886.081 376.691L886.282 376.587L967.474 281.582L1129.56 234.131L1129.76 234.027L1210.95 139.022L1365.8 93.7565V92.82L1210.05 138.398H1209.95ZM1129.06 375.858L1128.85 375.963L1047.66 470.968L885.579 518.418L885.378 518.522L804.185 613.528L642.102 660.978L641.901 661.082L560.709 755.879L411.187 799.688H414.503L561.714 756.608L561.915 756.504L643.107 661.498L805.19 614.048L805.391 613.944L886.584 518.939L1048.67 471.488L1048.87 471.384L1130.06 376.379L1292.14 328.928L1292.34 328.824L1366 242.56V240.687L1291.24 328.2L1129.06 375.858ZM1149.35 387.721L1149.15 387.825L1067.96 482.83L905.877 530.281L905.676 530.385L824.484 625.39L662.4 672.841L662.199 672.945L581.007 767.95L471.98 799.792H475.296L581.911 768.574L582.112 768.47L663.305 673.465L825.388 626.015L825.589 625.911L906.781 530.905L1068.86 483.455L1069.07 483.351L1150.26 388.345L1312.34 340.895L1312.54 340.791L1365.9 278.252V276.379L1311.44 340.167L1149.35 387.721Z" fill="url(#paint0_radial)"/>
</g>
<defs>
<radialGradient id="paint0_radial" cx="0" cy="0" r="1" gradientUnits="userSpaceOnUse" gradientTransform="translate(683 400) rotate(90) scale(400 683)">
<stop stop-color="#27AEAD"/>
<stop offset="1" stop-color="#17396B" stop-opacity="0"/>
</radialGradient>
</defs>
</svg>
